<svg height="496pt" viewBox="-15 0 495 496" width="496pt" xmlns="http://www.w3.org/2000/svg"><path d="m232.5 424v40c0 13.28125-10.71875 24-24 24h-176c-13.28125 0-24-10.71875-24-24v-40zm0 0" fill="#838f9b"/><path d="m232.5 128v40h-224v-40c0-13.28125 10.71875-24 24-24h176c13.28125 0 24 10.71875 24 24zm0 0" fill="#838f9b"/><path d="m232.5 168v256h-224v-256zm0 0" fill="#69d6f4"/><path d="m200.5 296c0 44.183594-35.816406 80-80 80s-80-35.816406-80-80 35.816406-80 80-80 80 35.816406 80 80zm0 0" fill="#fcd770"/><path d="m288.5 184v-88h112v88zm0 0" fill="#fcd770"/><path d="m360.5 232c0-9.679688 8.640625-17.441406 18.71875-15.761719 7.839844 1.28125 13.28125 8.640625 13.28125 16.640625v15.121094c0-9.679688 8.640625-17.441406 18.71875-15.761719 7.839844 1.28125 13.28125 8.640625 13.28125 16.640625v31.121094c0-9.679688 8.640625-17.441406 18.71875-15.761719 7.839844 1.28125 13.28125 8.640625 13.28125 16.640625v102.242188c0 5.839844-1.601562 11.519531-4.558594 16.480468l-14.882812 24.796876c-2.957032 4.960937-4.558594 10.640624-4.558594 16.480468v47.121094h-128v-47.121094c0-5.839844-1.601562-11.519531-4.558594-16.480468l-16.242187-27.039063c-2.078125-3.519531-3.519531-7.4375-4.160157-11.597656l-14.878906-96.640625c-.082031-.722656-.160156-1.519532-.160156-2.242188 0-8.238281 6.640625-14.878906 14.878906-14.878906 7.359375 0 14.160156 2.558594 19.601563 6.878906 5.359375 4.402344 9.359375 10.5625 10.960937 17.679688l10.558594 47.441406h8v-183.121094c0-8 5.441406-15.359375 13.28125-16.640625 10.078125-1.679687 18.71875 6.082031 18.71875 15.761719zm0 0" fill="#f0d0b4"/><path d="m121.308594 16c21.367187 0 41.457031 8.320312 56.566406 23.433594l11.3125-11.3125c-18.136719-18.136719-42.238281-28.121094-67.878906-28.121094s-49.746094 9.984375-67.878906 28.121094l11.308593 11.3125c15.105469-15.113282 35.203125-23.433594 56.570313-23.433594zm0 0"/><path d="m166.554688 50.742188c-12.085938-12.085938-28.160157-18.742188-45.246094-18.742188-17.105469 0-33.175782 6.65625-45.257813 18.753906l11.320313 11.308594c9.058594-9.070312 21.113281-14.0625 33.9375-14.0625 12.824218 0 24.871094 4.992188 33.945312 14.054688zm0 0"/><path d="m98.675781 73.375 11.3125 11.3125c6.039063-6.054688 16.574219-6.054688 22.632813 0l11.3125-11.3125c-12.089844-12.09375-33.167969-12.09375-45.257813 0zm0 0"/><path d="m208.5 96h-176c-17.648438 0-32 14.351562-32 32v336c0 17.648438 14.351562 32 32 32h176c17.648438 0 32-14.351562 32-32v-336c0-17.648438-14.351562-32-32-32zm-176 16h176c8.824219 0 16 7.175781 16 16v32h-208v-32c0-8.824219 7.175781-16 16-16zm192 64v240h-208v-240zm-16 304h-176c-8.824219 0-16-7.175781-16-16v-32h208v32c0 8.824219-7.175781 16-16 16zm0 0"/><path d="m80.5 448h80v16h-80zm0 0"/><path d="m444.476562 256.320312c-4.082031-.65625-8.191406-.28125-11.976562 1.054688v-8.511719c0-12.128906-8.609375-22.679687-20.023438-24.535156-4.457031-.71875-8.929687-.199219-12.984374 1.441406-2.59375-8.9375-9.914063-15.953125-19.015626-17.441406-4.089843-.648437-8.191406-.28125-11.976562 1.054687v-17.382812h40v-104h-96v-40c0-17.648438 14.351562-32 32-32s32 14.351562 32 32v24h16v-24c0-26.472656-21.527344-48-48-48s-48 21.527344-48 48v40h-16v104h40v115.128906l-2.734375-12.320312c-4.035156-18.144532-19.824219-30.808594-38.402344-30.808594-12.605469 0-22.863281 10.257812-22.863281 22.855469 0 1.160156.089844 2.3125.265625 3.488281l14.871094 96.664062c.792969 5.152344 2.550781 10.03125 5.238281 14.496094l16.210938 27.007813c2.230468 3.726562 3.414062 8 3.414062 12.34375v55.144531h144v-55.144531c0-4.34375 1.183594-8.617188 3.414062-12.34375l14.882813-24.800781c3.734375-6.207032 5.703125-13.328126 5.703125-20.566407v-102.289062c0-12.121094-8.609375-22.679688-20.023438-24.535157zm-147.976562-80.320312v-72h96v72h-24v-16c0-7.054688-3.078125-13.71875-8.464844-18.289062-5.367187-4.566407-12.480468-6.535157-19.511718-5.390626-11.414063 1.855469-20.023438 12.414063-20.023438 24.535157v15.144531zm152 207.144531c0 4.34375-1.183594 8.617188-3.414062 12.34375l-14.882813 24.800781c-3.734375 6.207032-5.703125 13.328126-5.703125 20.566407v39.144531h-112v-39.144531c0-7.238281-1.96875-14.359375-5.695312-20.574219l-16.207032-27.007812c-1.609375-2.679688-2.664062-5.609376-3.144531-8.707032l-14.863281-96.636718c-.066406-.355469-.089844-.714844-.089844-1.074219 0-3.777344 3.078125-6.855469 6.863281-6.855469 11.015625 0 20.382813 7.511719 22.785157 18.273438l11.9375 53.726562h22.414062v-191.144531c0-4.304688 2.894531-8.144531 6.601562-8.742188 2.445313-.402343 4.757813.230469 6.574219 1.78125 1.800781 1.53125 2.824219 3.753907 2.824219 6.105469v176h16v-104c0-2.351562 1.023438-4.574219 2.824219-6.105469 1.816406-1.535156 4.136719-2.199219 6.574219-1.78125 3.707031.605469 6.601562 4.4375 6.601562 8.742188v103.144531h16v-88c0-2.351562 1.023438-4.574219 2.824219-6.105469 1.816406-1.535156 4.136719-2.199219 6.574219-1.78125 3.707031.605469 6.601562 4.4375 6.601562 8.742188v87.144531h16v-56c0-2.351562 1.023438-4.574219 2.824219-6.105469 1.816406-1.535156 4.136719-2.191406 6.574219-1.78125 3.707031.605469 6.601562 4.4375 6.601562 8.742188zm0 0"/><path d="m96.5 324.6875-18.34375-18.34375-11.3125 11.3125 29.65625 29.65625 77.65625-77.65625-11.3125-11.3125zm0 0"/><path d="m120.5 224c39.695312 0 72 32.296875 72 72 0 16.558594-5.777344 32.742188-16.257812 45.542969l12.386718 10.144531c12.816406-15.664062 19.871094-35.441406 19.871094-55.6875 0-48.519531-39.480469-88-88-88-20.246094 0-40.023438 7.0625-55.6875 19.878906l10.136719 12.378906c12.808593-10.480468 28.992187-16.257812 45.550781-16.257812zm0 0"/><path d="m120.5 384c20.246094 0 40.023438-7.0625 55.6875-19.878906l-10.136719-12.378906c-12.808593 10.480468-28.992187 16.257812-45.550781 16.257812-39.695312 0-72-32.296875-72-72 0-16.558594 5.777344-32.742188 16.257812-45.542969l-12.386718-10.144531c-12.816406 15.664062-19.871094 35.441406-19.871094 55.6875 0 48.519531 39.480469 88 88 88zm0 0"/></svg>