<svg height="498pt" viewBox="0 -1 498.50035 498" width="498pt" xmlns="http://www.w3.org/2000/svg"><path d="m440 184.25v32h-64v-32zm0 0" fill="#aab2bd"/><path d="m408 184.25h-32v-16c-14.480469-10.160156-24-28.960938-24-48 0-30.960938 25.039062-56 56-56s56 25.039062 56 56c0 19.039062-9.519531 37.839844-24 48v16zm0 0" fill="#fcd770"/><path d="m424 120.25c0 8.835938-7.164062 16-16 16s-16-7.164062-16-16 7.164062-16 16-16 16 7.164062 16 16zm0 0" fill="#ff826e"/><path d="m216 392.25v32h-64v-32zm0 0" fill="#fcd770"/><path d="m296 328.25v40c0 13.28125-10.71875 24-24 24h-176c-13.28125 0-24-10.71875-24-24v-40zm0 0" fill="#838f9b"/><path d="m296 32.25v40h-224v-40c0-13.28125 10.71875-24 24-24h176c13.28125 0 24 10.71875 24 24zm0 0" fill="#838f9b"/><path d="m296 72.25v256h-224v-35.359375c7.601562 2.238281 15.679688 3.359375 24 3.359375h88v-64h64c8.800781 0 16-7.199219 16-16v-96c0-8.800781-7.199219-16-16-16h-96c-8.800781 0-16 7.199219-16 16v9.601562c-12-6.160156-25.601562-9.601562-40-9.601562-8.320312 0-16.398438 1.121094-24 3.359375v-51.359375zm0 0" fill="#69d6f4"/><path d="m136 129.851562v38.398438h-.800781l-5.277344-5.28125-8.800781 4.402344c-4.242188-2.640625-8.960938-4.5625-14-5.761719l-3.121094-9.359375h-16l-3.121094 9.359375c-5.039062 1.199219-9.757812 3.121094-14 5.761719l-8.800781-4.402344-11.359375 11.363281 4.402344 8.796875c-2.640625 4.242188-4.5625 8.960938-5.761719 14l-9.359375 3.121094v16l9.359375 3.121094c1.199219 5.039062 3.121094 9.757812 5.761719 14l-4.402344 8.800781 11.359375 11.359375 8.800781-4.402344c4.242188 2.640625 8.960938 4.5625 14 5.761719l3.121094 9.359375h16l3.121094-9.359375c5.039062-1.199219 9.757812-3.121094 14-5.761719l8.800781 4.402344 11.359375-11.359375-4.402344-8.800781c1.199219-2.082032 2.320313-4.160156 3.28125-6.402344 2.960938 3.28125 7.199219 5.28125 11.839844 5.28125h32v64h-88c-8.320312 0-16.398438-1.121094-24-3.359375-36.960938-10.402344-64-44.320313-64-84.640625 0-24.320312 9.839844-46.320312 25.761719-62.238281 10.476562-10.480469 23.597656-18.320313 38.238281-22.402344 7.601562-2.238281 15.679688-3.359375 24-3.359375 14.398438 0 28 3.441406 40 9.601562zm0 0" fill="#e6e9ed"/><path d="m136.878906 233.371094c1.199219-2.082032 2.320313-4.160156 3.28125-6.402344-2.640625-2.796875-4.160156-6.558594-4.160156-10.71875v-48h-.800781l-5.277344-5.28125-8.800781 4.402344c-4.242188-2.640625-8.960938-4.5625-14-5.761719l-3.121094-9.359375h-16l-3.121094 9.359375c-5.039062 1.199219-9.757812 3.121094-14 5.761719l-8.800781-4.402344-11.359375 11.363281 4.402344 8.796875c-2.640625 4.242188-4.5625 8.960938-5.761719 14l-9.359375 3.121094v16l9.359375 3.121094c1.199219 5.039062 3.121094 9.757812 5.761719 14l-4.402344 8.800781 11.359375 11.359375 8.800781-4.402344c4.242188 2.640625 8.960938 4.5625 14 5.761719l3.121094 9.359375h16l3.121094-9.359375c5.039062-1.199219 9.757812-3.121094 14-5.761719l8.800781 4.402344 11.359375-11.359375zm-40.878906-9.121094c-8.800781 0-16-7.199219-16-16s7.199219-16 16-16 16 7.199219 16 16-7.199219 16-16 16zm0 0" fill="#fcd770"/><path d="m264 120.25v96c0 8.800781-7.199219 16-16 16h-96c-4.640625 0-8.878906-2-11.839844-5.28125-2.640625-2.796875-4.160156-6.558594-4.160156-10.71875v-96c0-8.800781 7.199219-16 16-16h96c8.800781 0 16 7.199219 16 16zm0 0" fill="#ff826e"/><path d="m144 352.25h80v16h-80zm0 0"/><path d="m192.566406 192.25h16v16h-16zm0 0"/><path d="m96 184.25c-13.230469 0-24 10.769531-24 24s10.769531 24 24 24 24-10.769531 24-24-10.769531-24-24-24zm0 32c-4.414062 0-8-3.582031-8-8 0-4.414062 3.585938-8 8-8s8 3.585938 8 8c0 4.417969-3.585938 8-8 8zm0 0"/><path d="m200 128.25c-19.183594 0-37.230469 7.230469-50.824219 20.375l11.128907 11.503906c10.582031-10.238281 24.6875-15.878906 39.695312-15.878906s29.113281 5.640625 39.695312 15.871094l11.128907-11.503906c-13.59375-13.136719-31.640625-20.367188-50.824219-20.367188zm0 0"/><path d="m172.175781 170.164062 10.390625 12.167969c9.1875-7.84375 25.671875-7.84375 34.859375 0l10.390625-12.167969c-7.480468-6.394531-17.359375-9.914062-27.816406-9.914062s-20.335938 3.519531-27.824219 9.914062zm0 0"/><path d="m472 120.25c0-35.289062-28.710938-64-64-64s-64 28.710938-64 64c0 20 9.304688 39.921875 24 51.96875v4.03125h-16v16h16v32h32v48h16v-48h32v-32h16v-16h-16v-4.03125c14.695312-12.046875 24-31.96875 24-51.96875zm-40 88h-48v-16h48zm-32-88c0-4.414062 3.585938-8 8-8s8 3.585938 8 8c0 4.417969-3.585938 8-8 8s-8-3.582031-8-8zm16 56v-33.472656c9.289062-3.3125 16-12.109375 16-22.527344 0-13.230469-10.769531-24-24-24s-24 10.769531-24 24c0 10.417969 6.710938 19.214844 16 22.527344v33.472656h-16v-12.167969l-3.425781-2.390625c-12.496094-8.730468-20.574219-24.992187-20.574219-41.441406 0-26.472656 21.527344-48 48-48s48 21.527344 48 48c0 16.449219-8.078125 32.710938-20.574219 41.441406l-3.425781 2.390625v12.167969zm0 0"/><path d="m400 .25h16v40h-16zm0 0"/><path d="m317.484375 41.054688 11.316406-11.3125 28.277344 28.277343-11.3125 11.316407zm0 0"/><path d="m458.910156 58.027344 28.277344-28.28125 11.3125 11.316406-28.277344 28.277344zm0 0"/><path d="m400 440.25c0 22.054688-17.945312 40-40 40h-128c-22.054688 0-40-17.945312-40-40v-8h32v-32h48c17.648438 0 32-14.351562 32-32v-336c0-17.648438-14.351562-32-32-32h-176c-17.648438 0-32 14.351562-32 32v85.601562c-37.222656 13.222657-64 48.695313-64 90.398438s26.777344 77.175781 64 90.398438v69.601562c0 17.648438 14.351562 32 32 32h48v32h32v8c0 30.871094 25.128906 56 56 56h128c30.871094 0 56-25.128906 56-56v-56h-16zm-304-424h176c8.824219 0 16 7.175781 16 16v32h-208v-32c0-8.824219 7.175781-16 16-16zm-80 192c0-44.113281 35.886719-80 80-80 11.191406 0 21.910156 2.375 32 6.800781v19.96875l-6.671875 3.34375c-2.566406-1.3125-5.222656-2.417969-7.960937-3.304687l-3.597657-10.808594h-27.53125l-3.597656 10.808594c-2.738281.886718-5.394531 1.992187-7.960937 3.304687l-10.183594-5.105469-19.488282 19.472657 5.105469 10.191406c-1.3125 2.566406-2.417969 5.222656-3.304687 7.960937l-10.808594 3.597657v27.53125l10.808594 3.597656c.886718 2.738281 1.992187 5.394531 3.304687 7.960937l-5.105469 10.183594 19.480469 19.480469 10.183594-5.105469c2.566406 1.3125 5.222656 2.417969 7.960937 3.304688l3.597657 10.816406h27.53125l3.597656-10.808594c2.738281-.886718 5.394531-1.992187 7.960937-3.304687l10.183594 5.105469 19.480469-19.480469-1.90625-3.808594c.976563.121094 1.921875.296875 2.921875.296875h24v48h-80c-44.113281 0-80-35.886719-80-80zm136 16c-4.414062 0-8-3.582031-8-8v-96c0-4.414062 3.585938-8 8-8h96c4.414062 0 8 3.585938 8 8v96c0 4.417969-3.585938 8-8 8zm-20.480469 16.359375-3.167969 3.167969-7.648437-3.832032-3.792969 2.335938c-3.628906 2.234375-7.542968 3.863281-11.652344 4.839844l-4.328124 1.03125-2.699219 8.097656h-4.46875l-2.707031-8.097656-4.328126-1.03125c-4.109374-.976563-8.023437-2.605469-11.65625-4.839844l-3.789062-2.335938-7.640625 3.824219-3.160156-3.160156 3.832031-7.648437-2.335938-3.789063c-2.234374-3.632813-3.863281-7.546875-4.839843-11.65625l-1.03125-4.328125-8.105469-2.707031v-4.46875l8.097656-2.707031 1.03125-4.328126c.976563-4.101562 2.605469-8.03125 4.839844-11.671874l2.335938-3.789063-3.824219-7.632813 3.167969-3.160156 7.648437 3.832032 3.792969-2.335938c3.628906-2.234375 7.542968-3.863281 11.652344-4.839844l4.328124-1.03125 2.699219-8.097656h4.46875l2.707031 8.097656 4.328126 1.03125c4.109374.976563 8.023437 2.605469 11.65625 4.839844l3.789062 2.335938 7.28125-3.648438v43.34375c0 4.070312 1.113281 7.847656 2.910156 11.207031-.308594.5625-.535156 1.152344-.871094 1.695313l-2.351562 3.800781zm-35.519531 63.640625h96v-64h56c13.230469 0 24-10.769531 24-24v-96c0-13.230469-10.769531-24-24-24h-96c-12.40625 0-22.527344 9.503906-23.761719 21.601562-10.285156-3.6875-21.070312-5.601562-32.238281-5.601562-5.464844 0-10.785156.566406-16 1.449219v-33.449219h208v240h-208v-17.449219c5.214844.882813 10.535156 1.449219 16 1.449219zm-16 64v-32h208v32c0 8.824219-7.175781 16-16 16h-176c-8.824219 0-16-7.175781-16-16zm80 32h48v16h-48zm0 0"/><path d="m400 288.25h16v16h-16zm0 0"/><path d="m400 320.25h16v16h-16zm0 0"/><path d="m400 352.25h16v16h-16zm0 0"/></svg>